<?xml version="1.0" standalone="no"?>
<!DOCTYPE svg PUBLIC "-//W3C//DTD SVG 20010904//EN"
 "http://www.w3.org/TR/2001/REC-SVG-20010904/DTD/svg10.dtd">
<svg version="1.0" xmlns="http://www.w3.org/2000/svg"
 width="1024.000000pt" height="1024.000000pt" viewBox="0 0 1024.000000 1024.000000"
 preserveAspectRatio="xMidYMid meet">

<g transform="translate(0.000000,1024.000000) scale(0.100000,-0.100000)"
fill="#000000" stroke="none">
<path d="M4955 8064 c-157 -15 -339 -41 -422 -60 -54 -12 -269 -82 -362 -118
-221 -85 -519 -258 -711 -413 -98 -79 -288 -268 -366 -365 -177 -219 -409
-623 -479 -833 -53 -160 -101 -377 -127 -580 -16 -128 -16 -543 1 -650 19
-122 67 -327 106 -457 86 -282 258 -601 462 -853 350 -433 885 -778 1408 -909
91 -23 327 -63 445 -77 210 -24 602 8 832 66 661 169 1211 553 1577 1100 219
326 388 731 365 869 -9 58 -27 88 -80 135 -57 50 -99 59 -169 37 -67 -21 -114
-53 -137 -93 -10 -17 -37 -96 -59 -175 -91 -324 -315 -682 -591 -943 -187
-177 -541 -392 -783 -475 -134 -46 -340 -97 -451 -111 -54 -6 -187 -12 -294
-13 -216 -1 -314 12 -573 78 -160 41 -228 67 -402 154 -135 67 -235 129 -345
215 -376 294 -612 604 -763 1003 -42 111 -107 345 -121 439 -18 115 -24 300
-15 482 11 231 22 323 55 453 42 167 144 441 178 479 8 9 26 43 41 76 14 33
37 71 49 85 13 14 31 39 40 57 9 18 22 36 30 40 7 4 23 26 34 48 43 86 276
320 457 461 140 108 409 254 585 317 118 42 374 103 495 117 149 17 403 12
552 -9 333 -49 588 -143 883 -324 143 -87 224 -152 364 -287 180 -174 340
-379 454 -581 55 -98 131 -277 162 -385 46 -161 75 -206 152 -239 53 -22 87
-19 149 13 39 19 63 41 88 77 33 49 33 51 29 140 -8 155 -101 373 -304 715
-137 229 -417 552 -626 720 -343 276 -747 461 -1193 546 -121 23 -171 27 -360
29 -121 2 -238 1 -260 -1z"/>
<path d="M5020 7193 c-14 -2 -74 -10 -133 -19 -537 -75 -1022 -395 -1300 -859
-109 -182 -179 -363 -225 -575 -24 -115 -26 -143 -26 -360 0 -252 -1 -246 68
-507 117 -445 434 -818 907 -1067 134 -70 270 -115 494 -162 152 -31 199 -37
300 -37 185 1 442 49 638 120 276 99 572 306 744 518 118 146 194 259 259 384
48 91 49 96 49 181 0 82 -2 91 -30 131 -16 23 -47 56 -68 73 -34 27 -46 31
-100 30 -121 -1 -174 -48 -253 -225 -186 -415 -513 -674 -969 -766 -56 -12
-135 -17 -265 -17 -168 0 -195 3 -295 27 -294 73 -443 155 -640 352 -202 202
-323 423 -382 697 -25 116 -25 426 1 551 39 197 128 400 241 552 200 270 499
461 830 530 108 23 331 31 435 16 340 -50 662 -236 882 -510 71 -89 91 -119
176 -271 75 -135 89 -152 156 -185 69 -35 129 -34 187 4 130 84 142 182 44
379 -214 430 -621 787 -1060 930 -203 66 -525 107 -665 85z"/>
</g>
</svg>
